<svg version="1.1" xmlns="http://www.w3.org/2000/svg" xmlns:xlink="http://www.w3.org/1999/xlink" width="372.51018" height="234.43309" viewBox="0,0,372.51018,234.43309"><g transform="translate(-56.01306,-80.49378)"><g data-paper-data="{&quot;isPaintingLayer&quot;:true}" fill-rule="nonzero" stroke-linejoin="miter" stroke-miterlimit="10" stroke-dasharray="" stroke-dashoffset="0" style="mix-blend-mode: normal"><path d="M332.81822,263.02025l0.88841,-90.27149l81.6426,0.80349l-0.88841,90.27149z" data-paper-data="{&quot;index&quot;:null}" fill="#3dff00" stroke="#000000" stroke-width="0.5" stroke-linecap="butt"/><path d="M412.26886,149.29216c-0.20384,20.71206 -17.90247,37.32993 -39.53099,37.11708c-21.62851,-0.21286 -38.99665,-17.17586 -38.79281,-37.88791c0.20384,-20.71205 17.90247,-37.32994 39.53098,-37.11708c21.62851,0.21286 38.99666,17.17586 38.79282,37.88791z" data-paper-data="{&quot;index&quot;:null}" fill="#fff49c" stroke="#000000" stroke-width="0.5" stroke-linecap="butt"/><text transform="translate(353.24314,146.93254) rotate(0.5638) scale(0.5,0.5)" font-size="40" xml:space="preserve" data-paper-data="{&quot;index&quot;:null}" fill="#000000" fill-rule="nonzero" stroke="#000000" stroke-width="1" stroke-linecap="butt" stroke-linejoin="miter" stroke-miterlimit="10" stroke-dasharray="" stroke-dashoffset="0" font-family="Sans Serif" font-weight="normal" text-anchor="start" style="mix-blend-mode: normal"><tspan x="0" dy="0">^  ^</tspan></text><path d="M426.94715,173.10418l-0.78473,51.10606l-12.61059,-0.19364l0.78472,-51.10604z" data-paper-data="{&quot;index&quot;:null}" fill="#3dff00" stroke="#000000" stroke-width="0.5" stroke-linecap="butt"/><path d="M412.31078,246.69962l1.26308,-35.15835l12.60393,0.4528l-1.26307,35.15834z" data-paper-data="{&quot;index&quot;:null}" fill="#fbffb5" stroke="#000000" stroke-width="0.5" stroke-linecap="butt"/><text transform="translate(360.20717,151.04541) rotate(92.8498) scale(0.51742,0.45891) skewX(0.29613)" font-size="40" xml:space="preserve" data-paper-data="{&quot;index&quot;:null}" fill="#000000" fill-rule="nonzero" stroke="#000000" stroke-width="1" stroke-linecap="butt" stroke-linejoin="miter" stroke-miterlimit="10" stroke-dasharray="" stroke-dashoffset="0" font-family="Sans Serif" font-weight="normal" text-anchor="start" style="mix-blend-mode: normal"><tspan x="0" dy="0">3</tspan></text><path d="M405.08165,100.31843c0.43499,-0.04487 0.86962,-0.09442 1.30386,-0.149c0.0027,-0.0005 0.00444,-0.00074 0.00518,-0.00072c0.00018,0 0.00035,0.00002 0.00052,0.00002c0.04887,-0.00615 0.09775,-0.01237 0.1466,-0.01864l-0.0007,-0.00527l2.41793,-0.32117c0.01552,-1.10264 -0.09804,-2.12215 -0.38488,-2.92978c-1.54736,-4.3568 -4.88417,-3.87686 -8.82085,-4.29954c-4.18945,-0.44982 -8.5975,-1.27542 -12.83237,-0.95289c-2.53148,0.1928 -5.0225,0.72397 -7.52202,1.18765l2.1191,0.44556c1.16635,0.22135 2.04291,1.25181 2.03082,2.48064c-0.00396,0.40277 -0.10295,0.78235 -0.27548,1.11766c0.49223,-0.02683 0.98356,-0.06459 1.47356,-0.11425c4.03173,-0.40861 8.22856,-0.78344 12.12762,-1.92035c1.98461,-0.57869 3.92637,-2.24049 5.94131,-1.77837c1.83596,0.42106 3.80052,2.16772 3.94512,4.04577c0.09514,1.23562 -0.75622,2.23267 -1.67529,3.21267zM372.73799,111.72042c-2.12508,-0.84941 -4.3208,-1.74435 -6.37288,-2.78213c0.18145,0.8924 0.40312,1.78945 0.6292,2.65555c1.64999,0.07724 3.30192,0.11839 4.95317,0.13428c0.26407,0.00254 0.52825,0.00563 0.79251,0.00917c-0.00069,-0.00562 -0.00135,-0.01124 -0.00201,-0.01687zM361.60857,111.19448c-0.18242,-0.88017 -0.33825,-1.75892 -0.45405,-2.62613c-0.53258,0.83736 -1.50922,1.59131 -2.12849,2.3478c-0.2245,0.27425 -0.88361,0.0544 -0.98789,0.39313c-0.09752,0.31679 0.62218,-0.28557 0.95362,-0.28176c0.87423,0.01004 1.74578,0.08336 2.61681,0.16698zM353.31031,98.04579c0.8706,-0.25097 1.79108,-0.43556 2.70591,-0.5774c0.05628,-0.04023 0.11274,-0.08024 0.16935,-0.12006c0.65793,-2.0844 2.82453,-2.7739 5.03315,-2.96713c1.59839,-0.82765 3.21611,-1.6083 4.77047,-2.4234c0.11403,-0.11347 0.22868,-0.22275 0.34396,-0.32797l-0.00107,-0.00082c-0.61594,-0.461 -1.01153,-1.19915 -1.00338,-2.02742c0.01358,-1.38065 1.14384,-2.48886 2.52448,-2.47528c0.50737,0.00498 0.97797,0.16079 1.36961,0.42439l1.74554,1.13509c0.42433,-0.75119 0.7499,-1.58839 1.33101,-2.21641l2.79248,-4.1007c0.45189,-0.68484 1.23132,-1.13345 2.1128,-1.12478c1.38065,0.01358 2.48886,1.14384 2.47528,2.52448l-0.03919,3.98257l-0.0104,-0.00011l0.00977,0.0367c-0.00004,0.00109 -0.00009,0.00217 -0.00013,0.00325c7.01756,-0.92884 13.37953,-0.98408 20.65588,-0.16652c6.01311,0.67562 10.46325,1.03105 12.96243,7.53113c0.65132,1.69402 0.81371,3.85635 0.64016,6.07972c0.08088,0.25006 0.12339,0.51724 0.12066,0.7945c-0.00469,0.47646 -0.14235,0.92046 -0.37741,1.29713c-0.09236,0.55651 -0.20281,1.10887 -0.32892,1.65066c1.29593,-0.03696 2.58547,-0.03842 3.86554,0.00569c2.68017,0.0924 9.52771,0.54077 10.59495,4.40211c1.35955,4.91888 -4.54902,7.84189 -7.62477,9.00527c-2.41647,0.91402 -4.93518,0.75246 -7.42695,0.73065c-2.7684,-0.02422 -5.23033,-0.03143 -7.56629,-0.24649c-0.82345,1.75306 -1.34405,3.60111 -1.31465,5.62486c0,0 -0.0246,2.49988 -2.52448,2.47528c-2.49988,-0.0246 -2.47528,-2.52448 -2.47528,-2.52448c0.06338,-2.34521 0.5366,-4.4618 1.31949,-6.46935c-2.03387,-0.57854 -4.0727,-1.4618 -6.25014,-2.81629c-2.2445,1.7441 -6.57789,1.61684 -8.31305,1.69548c-2.5315,0.11471 -5.11317,0.14827 -7.70426,0.12984c-0.62495,2.18144 -1.32994,4.49725 -1.85433,5.69624c-0.79951,1.82806 -1.33206,3.96034 -2.83639,5.27108c-6.59151,5.74329 -7.82975,-1.92648 -8.92597,-6.50793c-0.35182,-1.47038 -0.82484,-3.1089 -1.30412,-4.82938c-1.83591,-0.03698 -3.6556,-0.17521 -5.36231,-0.78728c-0.6766,-0.24264 -1.43328,-0.5088 -2.12871,-0.85304c-0.04857,2.12576 -0.15293,4.49142 -0.24245,4.68766c-1.79826,3.9419 -8.89463,5.06282 -12.56582,4.72608c-1.6278,-0.14931 -3.09651,-1.0614 -4.59119,-1.72323c-5.32751,-2.35897 -9.51068,-2.71531 -4.85891,-10.49748c0.79103,-1.32335 2.89792,-1.06121 4.3798,-1.48668c0.42609,-0.12233 0.85328,-0.24066 1.28127,-0.35611c-0.09799,-0.27203 -0.15013,-0.5658 -0.14711,-0.87186c0.01147,-1.16537 0.81852,-2.13664 1.9002,-2.40303l4.77355,-1.29109l0.07574,0.28007c0.57097,-0.22265 1.13573,-0.4057 1.72454,-0.55476c-0.48037,-0.86077 -0.79435,-1.73131 -0.54812,-2.63536c0.58593,-2.15133 2.92869,-3.59718 4.98421,-4.46114c0.53177,-0.2235 1.09025,-0.32061 1.66353,-0.34698zM350.55101,113.39632c-0.53611,-0.0152 -1.09533,-0.10493 -1.66111,-0.21581c-1.72336,0.43034 -3.49552,0.73861 -5.20379,1.18884c-1.63039,0.4297 -3.25804,0.88813 -4.9188,1.17908c-0.61229,0.10727 -1.37048,-0.36752 -1.86483,0.00934c-0.46257,0.35263 -0.83183,1.33515 -0.38113,1.70284c0.90011,0.73433 2.2954,0.40399 3.40092,0.76074c1.13856,0.3674 2.11153,1.30148 3.3036,1.40276c1.44258,0.12258 2.84517,-0.54144 4.27655,-0.75867c0.18188,-0.02761 2.89773,0.14499 3.1358,-0.95689c0.30463,-1.40987 0.21046,-2.87452 -0.08718,-4.31224zM411.4468,110.12597c-0.84541,1.4703 -2.3167,2.51456 -3.30743,3.89942c-0.09187,0.12842 -0.18335,0.25696 -0.2743,0.38563c2.50212,0.04747 5.09165,-0.07795 7.31129,-0.25747c3.18117,-0.25728 3.95929,-0.4569 6.74288,-2.22769c0.4303,-0.27374 1.27499,-0.63074 1.06709,-1.09643c-0.24065,-0.53905 -1.1442,-0.30178 -1.72859,-0.38533c-1.39506,-0.19943 -2.79323,-0.44492 -4.20236,-0.46251c-1.8598,-0.02321 -3.73131,0.03362 -5.60859,0.14438zM371.4251,120.7584c0.42552,-1.08181 0.86611,-2.45012 1.28823,-3.86585c-1.47902,-0.04274 -2.95226,-0.09613 -4.41207,-0.15471c0.63816,2.35254 1.59188,4.99104 1.49785,7.41071c0.4879,-1.15353 1.16729,-2.22397 1.626,-3.39014zM404.06977,111.12046c0.09201,-0.12823 0.18934,-0.25259 0.29073,-0.37392c-2.26345,0.24655 -4.52451,0.52367 -6.77284,0.78598c1.52626,0.94516 2.87424,1.87614 4.64708,2.3362c0.56036,-0.91744 1.17572,-1.82913 1.83505,-2.74826zM407.32224,105.08948c-0.21669,0.13209 -0.4427,0.24232 -0.67579,0.33588c0.46793,-0.04593 0.93573,-0.08954 1.40325,-0.13035c0.03189,-0.10369 0.06321,-0.20864 0.0939,-0.31472l-0.55589,0.07457c-0.08849,0.01176 -0.17698,0.02329 -0.26546,0.0346z" data-paper-data="{&quot;index&quot;:null}" fill="#000000" stroke="#3dff00" stroke-width="1.5" stroke-linecap="butt"/><path d="M412.92274,246.42274l-3.80894,-0.21466l-0.12818,-1.64142l3.80894,0.16888z" data-paper-data="{&quot;index&quot;:null}" fill="#fbffb5" stroke="#000000" stroke-width="0.5" stroke-linecap="butt"/><path d="M416.12544,253.17166l-3.69878,-0.05145l0.20006,-6.16152l3.69878,0.05144z" data-paper-data="{&quot;index&quot;:null}" fill="#fbffb5" stroke="#000000" stroke-width="0.5" stroke-linecap="butt"/><path d="M419.29884,252.5037l-2.06731,-0.1431l-0.21062,-5.44816l2.06733,0.14309z" data-paper-data="{&quot;index&quot;:null}" fill="#fbffb5" stroke="#000000" stroke-width="0.5" stroke-linecap="butt"/><path d="M422.28633,251.31177l-2.04628,-0.23324l-0.54533,-4.01392l2.04629,0.23325z" data-paper-data="{&quot;index&quot;:null}" fill="#fbffb5" stroke="#000000" stroke-width="0.5" stroke-linecap="butt"/><path d="M425.54747,250.81622l-2.03754,-0.27069l-0.68438,-3.41808l2.03755,0.27069z" data-paper-data="{&quot;index&quot;:null}" fill="#fbffb5" stroke="#000000" stroke-width="0.5" stroke-linecap="butt"/><path d="M337.92955,172.91056l0.78472,51.10604l-12.61058,0.19364l-0.78474,-51.10605z" data-paper-data="{&quot;index&quot;:null}" fill="#3dff00" stroke="#000000" stroke-width="0.5" stroke-linecap="butt"/><path d="M327.35138,247.15241l-1.26307,-35.15834l12.60393,-0.4528l1.26308,35.15835z" data-paper-data="{&quot;index&quot;:null}" fill="#fbffb5" stroke="#000000" stroke-width="0.5" stroke-linecap="butt"/><path d="M339.47155,244.73554l3.80894,-0.16888l-0.12818,1.64142l-3.80894,0.21466z" data-paper-data="{&quot;index&quot;:null}" fill="#fbffb5" stroke="#000000" stroke-width="0.5" stroke-linecap="butt"/><path d="M335.9406,247.01013l3.69878,-0.05144l0.20006,6.16152l-3.69878,0.05145z" data-paper-data="{&quot;index&quot;:null}" fill="#fbffb5" stroke="#000000" stroke-width="0.5" stroke-linecap="butt"/><path d="M333.17787,247.05553l2.06733,-0.14309l-0.21062,5.44816l-2.06731,0.1431z" data-paper-data="{&quot;index&quot;:null}" fill="#fbffb5" stroke="#000000" stroke-width="0.5" stroke-linecap="butt"/><path d="M330.5251,247.29786l2.04629,-0.23325l-0.54533,4.01392l-2.04628,0.23324z" data-paper-data="{&quot;index&quot;:null}" fill="#fbffb5" stroke="#000000" stroke-width="0.5" stroke-linecap="butt"/><path d="M327.40301,247.39814l2.03755,-0.27069l-0.68438,3.41808l-2.03754,0.27069z" data-paper-data="{&quot;index&quot;:null}" fill="#fbffb5" stroke="#000000" stroke-width="0.5" stroke-linecap="butt"/><g fill="#000000" stroke="#000000" stroke-width="0.5" stroke-linecap="butt"><path d="M332.98553,313.47276l0.49646,-50.44583l29.86924,0.29396l-0.49646,50.44583z" data-paper-data="{&quot;index&quot;:null}"/><path d="M381.85531,314.38064l0.53603,-50.44583l32.25014,0.29396l-0.53604,50.44583z" data-paper-data="{&quot;index&quot;:null}"/><path d="M348.59876,289.58268v-26h42v26z"/></g><g data-paper-data="{&quot;index&quot;:null}" stroke-width="5" stroke-linecap="butt"><path d="M131.8913,215.94498c7.82379,-0.52651 9.9945,8.86398 10.85161,21.60027c0.8571,12.73629 0.19777,26.01529 -7.61187,26.54084c-7.80962,0.52557 -9.31231,-13.62031 -10.1016,-25.34879c-0.78928,-11.72849 -0.96194,-22.26581 6.86186,-22.79232z" data-paper-data="{&quot;index&quot;:null}" fill="#00e2ff" stroke="#0099ad"/><path d="M136.41551,275.72614c-6.17543,0.41558 -10.99777,-4.06524 -11.39429,-9.9574c-0.39653,-5.89218 3.80265,-10.9801 9.95739,-11.3943c6.15476,-0.4142 10.97882,3.78341 11.39431,9.9574c0.41549,6.17399 -3.78197,10.97871 -9.9574,11.39429z" fill="#ffd975" stroke="#492f1f"/></g><g data-paper-data="{&quot;index&quot;:null}" fill="#181818" stroke="#111111" stroke-width="5" stroke-linecap="butt"><path d="M118.79757,244.65089c11.00953,0 10.16575,12.1269 10.16575,24.92c0,3.20316 -0.83496,9.34274 0.70483,12.62459c2.30534,4.91352 7.89031,4.33555 5.67468,14.02886c-0.83362,3.64706 -12.42497,1.90655 -16.54526,1.90655c-10.99471,0 -10.16575,-16.84528 -10.16575,-28.56c0,-11.71472 -0.84378,-24.92 10.16575,-24.92z"/><path d="M101.04757,248.15089c11.00953,0 10.16575,12.12689 10.16575,24.92c0,3.20315 -0.83496,9.34274 0.70483,12.62459c2.30534,4.91352 7.89031,4.33555 5.67468,14.02886c-0.83362,3.64705 -12.42497,1.90655 -16.54526,1.90655c-10.99471,0 -10.16575,-16.84528 -10.16575,-28.56c0,-11.71472 -0.84379,-24.92 10.16575,-24.92z"/></g><path d="M85.77313,226.94904c0.05361,-14.15735 5.76687,-30.85644 23.99177,-30.79719c18.2249,0.05925 23.8153,15.80375 23.75793,30.95243c-0.05736,15.14868 -5.81836,22.85627 -23.99177,22.79719c-18.1734,-0.05908 -23.81154,-8.79507 -23.75792,-22.95242z" data-paper-data="{&quot;index&quot;:null}" fill="#00e2ff" stroke="#0099ad" stroke-width="5" stroke-linecap="butt"/><path d="M112.29002,209.32238c-21.99934,0 -39.83333,-17.83399 -39.83333,-39.83334c0,-21.99934 17.83398,-39.83333 39.83333,-39.83333c21.99935,0 39.83334,17.83398 39.83334,39.83333c0,21.99935 -17.83399,39.83334 -39.83334,39.83334z" data-paper-data="{&quot;index&quot;:null}" fill="#ffd975" stroke="#492f1f" stroke-width="5" stroke-linecap="butt"/><g data-paper-data="{&quot;index&quot;:null}" stroke-width="5" stroke-linecap="butt"><path d="M86.32174,212.79608c7.82379,0.52651 7.65114,11.06383 6.86185,22.79232c-0.78928,11.72848 -2.29198,25.87436 -10.1016,25.34879c-7.80964,-0.52555 -8.46897,-13.80455 -7.61187,-26.54084c0.8571,-12.73629 3.02781,-22.12678 10.85161,-21.60027z" data-paper-data="{&quot;index&quot;:null}" fill="#00e2ff" stroke="#0099ad"/><path d="M93.19179,262.61984c-0.39651,5.89216 -5.21886,10.37298 -11.39429,9.9574c-6.17543,-0.41558 -10.37289,-5.22031 -9.9574,-11.3943c0.41549,-6.17399 5.23954,-10.3716 11.3943,-9.9574c6.15475,0.41419 10.35392,5.50212 9.9574,11.39429z" fill="#ffd975" stroke="#492f1f"/></g><path d="M130.63048,194.16067c0,0 -35.32357,7.11641 -45.8695,-7.65372" data-paper-data="{&quot;index&quot;:null}" fill="none" stroke="#492f1f" stroke-width="5" stroke-linecap="round"/><path d="M105.88508,116.20497c-0.29463,0.43571 -0.57269,0.86933 -0.83525,1.30727c0.04846,-0.00112 0.09697,-0.00196 0.1455,-0.00253c3.03969,-1.3523 6.26146,-2.39737 9.20173,-3.51582c0.98567,-0.37495 7.54493,-2.97526 8.41439,-3.15319c4.57736,-0.93672 10.47737,0.54343 15.02258,1.00773c3.0504,0.31161 9.45962,-0.62314 11.9605,1.31252c0.34173,0.2645 1.68606,7.67794 1.69165,7.70481c0.47733,2.29284 1.05012,4.91477 1.25938,7.49027c1.18611,0.69105 2.34323,1.52697 3.51314,2.54051c1.35302,1.17218 3.21641,-1.401 3.8055,0.28945c0.23146,0.6642 0.34404,1.39089 0.34351,2.1245c1.1151,0.72619 2.31937,1.37481 3.05877,2.45552c0.59247,0.86597 0.8631,1.85183 0.96919,2.87501c1.97559,3.27051 1.22077,6.58726 -0.47901,10.36942c-0.07406,0.16478 -0.14695,0.33505 -0.21947,0.50923c-0.26115,1.76988 -0.57443,3.53705 -0.87239,5.33137l-0.2435,0.25855l0.11059,0.05731l-1.37053,2.64411c-0.35009,0.71053 -1.08156,1.1994 -1.9272,1.1994c-1.14617,0 -2.08257,-0.89807 -2.14395,-2.02891l-0.17079,-2.73266l0.07281,-0.00455c-0.02374,-0.14752 -0.04182,-0.29627 -0.05346,-0.44638c-0.09066,-1.16956 0.71985,-2.23759 1.19514,-3.31006c0.36905,-0.83276 0.82664,-1.6298 1.27532,-2.4203c0.21177,-1.59673 0.37398,-3.19851 0.42688,-4.83074c0.01125,-0.3471 0.22842,-2.17796 0.16779,-3.58997c-0.5653,-0.62761 -1.28822,-1.15613 -1.99852,-1.68726c-0.29204,0.17114 -0.60487,0.32202 -0.92477,0.46598c0.90643,5.0937 -0.75461,11.02312 -3.59804,14.96057c-1.10738,1.53345 -2.1287,3.42532 -3.8795,4.14117c-1.18154,0.48309 -2.55221,-0.01004 -3.79654,-0.49857c-1.30687,0.75317 -2.93479,0.70791 -4.85297,-0.67102c-1.4009,-1.00707 -1.76733,-2.9637 -2.6417,-4.45105c-0.72698,-1.23661 -1.52048,-2.43982 -2.38216,-3.59028c-0.32215,-0.25342 -0.60647,-0.52845 -0.7484,-0.8896c-1.95807,-0.93543 -4.05137,-2.48621 -5.671,-3.19944c-0.33601,-0.14797 -0.66958,-0.29926 -1.00077,-0.45381c-3.7513,2.81005 -10.55186,6.19723 -15.17431,4.85863c-4.33003,-1.25393 -6.52755,-5.56254 -7.37988,-9.93746l-2.08378,0.94717l-0.00245,-0.0054c-0.01035,0.00679 -0.02071,0.01358 -0.03107,0.02035c-0.08909,0.05819 -0.34135,0.17666 -0.70673,0.33628c-0.18462,0.78158 -0.72465,1.32161 -0.72465,1.32161c-1.51129,1.48215 -2.2829,2.62767 -3.20077,4.41453c0.70725,0.62999 1.40263,1.36479 2.13518,2.25597c0,0 1.56174,1.95217 -0.39043,3.51391c-0.18889,0.15111 -0.37412,0.26933 -0.55464,0.35959c-0.0642,0.15891 -0.14805,0.31106 -0.25353,0.45539c-0.75453,1.03247 -7.90968,0.27169 -8.90034,0.20111c-1.3798,-0.10109 -2.72555,-0.08866 -4.0539,-0.0062c-0.27259,0.62626 -1.0883,1.95953 -2.95713,1.44985c-0.04499,-0.01227 -0.08892,-0.02516 -0.1318,-0.03862c0.45452,1.46701 0.50144,2.99909 -0.03208,4.5097c-0.13067,0.36997 -0.33256,0.73262 -0.58956,1.08676c0.26567,-0.03034 0.56873,-0.00934 0.91352,0.08469c2.07149,0.56496 1.50654,2.63645 1.50654,2.63645l-0.99805,2.76887c-1.39272,1.53128 -2.8772,2.95686 -4.38047,4.35432c0.02873,0.0453 0.0576,0.09098 0.08664,0.13702c1.34265,2.12926 0.71615,6.7534 0.25974,9.10869c-0.32495,1.67692 -0.24099,3.57864 -1.22298,4.97627c-0.91748,1.3058 -2.47227,2.71817 -4.05821,2.54025c-1.45939,-0.16372 -2.32405,-1.96764 -2.89565,-3.32037c-0.36352,-0.86027 -0.5632,-1.75567 -0.63603,-2.66146c-0.48057,1.022 -1.07263,1.91478 -1.97622,2.42634c-0.20022,0.11335 -0.40776,0.2055 -0.62117,0.28073l0.02573,0.0669l-2.1871,0.84119c-0.25177,0.10363 -0.52757,0.16078 -0.81672,0.16078c-1.18584,0 -2.14715,-0.96131 -2.14715,-2.14715c0,-0.23738 0.03852,-0.46577 0.10966,-0.67925l0.67238,-2.18523l0.02503,0.00771l0.00258,-0.0913c0.26026,-0.64971 0.5249,-1.29865 0.79928,-1.94344c-1.07874,0.2022 -2.198,0.11185 -3.6767,-0.56974c-4.89322,-2.25547 -4.28924,-8.68684 -3.16947,-12.73914c1.99568,-2.30858 3.38173,-4.90316 5.20581,-7.32484c0.22937,-1.48474 0.7524,-2.92633 1.75951,-4.3416c0.68169,-0.95796 1.32259,-2.16641 2.43252,-2.55428c0.28321,-0.09897 0.57381,-0.13473 0.86905,-0.12984c0.11125,-0.16379 0.22221,-0.3278 0.33289,-0.49203c-1.19982,-0.18105 -2.46066,-0.34619 -3.792,-0.60616c-0.66095,-1.21848 -1.49817,-2.35674 -1.98286,-3.65545c-2.58114,-6.91601 2.49829,-9.13679 5.46533,-14.81187c0.16271,-0.31121 0.31364,-0.64801 0.45748,-1.00189c-0.08008,-2.23558 0.14079,-4.49162 0.63079,-6.65489c0.37019,-1.63436 0.5466,-3.38186 1.38524,-4.83267c3.21573,-5.56302 9.53043,-2.93867 14.36797,0.07408c2.83081,-1.12447 5.63911,-2.3613 8.40258,-3.58363l1.761,-1.12064c0.33857,-0.22309 0.74403,-0.35291 1.17982,-0.35291c1.18584,0 2.14715,0.96131 2.14715,2.14715c0,0.49119 -0.16493,0.94386 -0.44244,1.30564l-0.84753,1.13004c0.20139,0.01501 0.39841,0.04219 0.59104,0.08079c0.97668,-1.45281 2.21172,-3.23159 2.79009,-3.77413c0.39347,-0.56982 0.80948,-1.1416 1.24952,-1.72369l0.2702,-0.08619l-0.08339,-0.0953l1.99088,-1.74202c0.44092,-0.38989 1.02052,-0.62653 1.65538,-0.62653c1.38071,0 2.5,1.11929 2.5,2.5c0,0.65703 -0.25347,1.25486 -0.66795,1.70106l-2.99505,3.24464l-0.04083,-0.03769z" data-paper-data="{&quot;index&quot;:null}" fill="#181818" stroke="#111111" stroke-width="5" stroke-linecap="butt"/><g data-paper-data="{&quot;index&quot;:null}" stroke="#492f1f" stroke-width="5"><path d="M104.90282,162.95918c5.39497,0 8,5.16533 8,10.7c0,5.53467 -2.38851,1.35569 -7.76639,1.35569c-5.37788,0 -8.23361,3.85823 -8.23361,-1.35569c0,-5.21392 2.60503,-10.7 8,-10.7z" data-paper-data="{&quot;index&quot;:null}" fill="#492f1f" stroke-linecap="butt"/><path d="M102.30283,173.35918l-14,-1.4" data-paper-data="{&quot;index&quot;:null}" fill="none" stroke-linecap="round"/></g><g data-paper-data="{&quot;index&quot;:null}" stroke="#492f1f" stroke-width="5"><path d="M145.41795,172.45581c0,5.21392 -2.62212,1.5893 -8,1.5893c-5.37788,0 -8,3.94537 -8,-1.5893c0,-5.53467 2.60503,-10.7 8,-10.7c5.39497,0 8,5.48608 8,10.7z" data-paper-data="{&quot;index&quot;:null}" fill="#492f1f" stroke-linecap="butt"/><path d="M154.01794,170.75581l-14,1.4" data-paper-data="{&quot;index&quot;:null}" fill="none" stroke-linecap="round"/></g><text transform="translate(352.96879,202.98521) scale(0.34561,0.34561)" font-size="40" xml:space="preserve" fill="#000000" fill-rule="nonzero" stroke="none" stroke-width="1" stroke-linecap="butt" stroke-linejoin="miter" stroke-miterlimit="10" stroke-dasharray="" stroke-dashoffset="0" font-family="Sans Serif" font-weight="normal" text-anchor="start" style="mix-blend-mode: normal"><tspan x="0" dy="0">shirt</tspan><tspan x="0" dy="46.15px">for</tspan><tspan x="0" dy="46.15px">loving </tspan><tspan x="0" dy="46.15px">bea</tspan></text></g></g></svg>